<svg xmlns="http://www.w3.org/2000/svg" x="0px" y="0px" viewBox="0 0 100 70" xml:space="preserve">	<path d="M8.084,26.987c-1.499-1.674-3.594-1.351-4.718-0.239c-0.539,0.533-0.867,1.198-0.923,1.965		c-0.087,1.222,0.409,2.19,1.414,2.952c-1.884-0.192-3.342,1.072-3.561,2.727c-0.129,0.975,0.138,1.874,0.829,2.593		c0.806,0.839,1.815,1.12,2.978,0.935c-1.909,1.632-1.41,3.674-0.561,4.663c0.534,0.622,1.219,1.008,2.028,1.095		c1.162,0.125,2.139-0.286,2.942-1.243c-0.14,1.111,0.125,2.029,0.848,2.786c0.73,0.765,1.651,1.089,2.687,0.955		c1.629-0.211,3.102-1.691,2.71-3.886c1.485,1.733,3.675,1.421,4.812,0.22c0.546-0.577,0.847-1.276,0.868-2.062		c0.031-1.155-0.457-2.078-1.424-2.779c2.393,0.35,3.947-1.642,3.75-3.446c-0.095-0.871-0.481-1.603-1.18-2.154		c-0.693-0.546-1.48-0.772-2.359-0.701c1.456-1.457,1.21-3.456,0.088-4.586c-0.514-0.517-1.145-0.844-1.872-0.909		c-1.208-0.108-2.209,0.317-2.978,1.322c0.068-2.099-1.52-3.256-2.831-3.386C9.943,23.644,8.213,24.795,8.084,26.987z		 M29.812,38.565c0,0.64,0,1.266,0,1.889c0.523,0,1.028,0.038,1.526-0.008c0.956-0.088,1.708-0.538,2.124-1.43		c0.459-0.986,0.529-2.026,0.249-3.07c-0.23-0.856-0.798-1.404-1.685-1.59c-0.048-0.01-0.093-0.033-0.171-0.061		c0.075-0.043,0.115-0.068,0.155-0.088c0.577-0.285,0.955-0.745,1.145-1.353c0.237-0.762,0.23-1.531,0.005-2.294		c-0.169-0.57-0.517-1.008-1.047-1.284c-0.733-0.383-1.523-0.344-2.322-0.319c0,0.643,0,1.263,0,1.888		c0.187,0.023,0.362,0.036,0.534,0.065c0.373,0.064,0.625,0.282,0.729,0.645c0.14,0.485,0.115,0.967-0.082,1.432		c-0.166,0.393-0.465,0.597-0.898,0.596c-0.4-0.001-0.8,0-1.2,0c-0.198,0-0.396,0-0.627,0c0-1.561,0-3.092,0-4.629		c-0.718,0-1.404,0-2.104,0c0,3.839,0,7.666,0,11.498c0.705,0,1.395,0,2.115,0c0-1.685,0-3.352,0-5.018		c0.758,0,1.486-0.031,2.211,0.009c0.654,0.037,1.043,0.372,1.134,0.976c0.059,0.395,0.048,0.814-0.014,1.21		c-0.083,0.524-0.422,0.804-0.947,0.873C30.376,38.541,30.104,38.545,29.812,38.565z M53.475,28.961		c-0.976,3.83-1.952,7.66-2.933,11.508c0.664,0,1.295,0.004,1.926-0.007c0.062-0.001,0.162-0.089,0.179-0.154		c0.083-0.301,0.141-0.608,0.211-0.911c0.108-0.473,0.219-0.945,0.33-1.428c0.82,0,1.62-0.002,2.419,0.001		c0.286,0.001,0.663-0.096,0.837,0.047c0.184,0.152,0.182,0.536,0.253,0.821c0.134,0.54,0.262,1.082,0.392,1.621		c0.735,0,1.445,0,2.182,0c-0.931-3.638-1.859-7.259-2.785-10.88c-0.057,0.042-0.071,0.079-0.079,0.116		c-0.241,1.101-0.452,2.21-0.734,3.3c-0.159,0.614-0.139,1.187,0.046,1.781c0.133,0.425,0.213,0.866,0.322,1.325		c-0.824,0-1.618,0-2.445,0c0.541-2.389,1.078-4.755,1.619-7.139C54.624,28.961,54.059,28.961,53.475,28.961z M63.264,30.115		c-0.016,0.002-0.034,0.004-0.05,0.005c-0.005,0.046-0.013,0.092-0.013,0.138c-0.001,1.416-0.002,2.832,0.002,4.248		c0,0.1,0.031,0.206,0.072,0.298c0.814,1.834,1.633,3.667,2.447,5.502c0.052,0.119,0.115,0.169,0.25,0.166		c0.336-0.01,0.672-0.003,1.008-0.003c0.43,0,0.859,0,1.296,0c0-3.852,0-7.68,0-11.505c-0.686,0-1.355,0-2.043,0		c0,2.636,0,5.256,0,7.875c-0.018,0.005-0.037,0.01-0.055,0.015C65.206,34.608,64.235,32.361,63.264,30.115z M99.311,35.514		c0-0.639,0-1.243,0-1.876c-1.346,0-2.678,0-4.039,0c0-1.576,0-3.124,0-4.677c-0.72,0-1.41,0-2.091,0c0,3.847,0,7.674,0,11.496		c0.705,0,1.388,0,2.101,0c0-1.654,0-3.289,0-4.943C96.637,35.514,97.962,35.514,99.311,35.514z M78.674,28.852		c0,0.65-0.002,1.28,0.004,1.911c0,0.043,0.043,0.106,0.082,0.125c0.688,0.312,0.996,0.914,1.153,1.593		c0.336,1.455,0.349,2.92-0.002,4.375c-0.169,0.698-0.477,1.328-1.157,1.69c-0.039,0.02-0.077,0.085-0.077,0.129		c-0.005,0.623-0.003,1.246-0.003,1.917c0.395-0.128,0.756-0.246,1.133-0.368c0.399,0.656,0.801,1.314,1.211,1.988		c0.494-0.291,0.965-0.569,1.444-0.851c-0.056-0.097-0.095-0.166-0.137-0.233c-0.38-0.612-0.756-1.225-1.142-1.833		c-0.078-0.123-0.075-0.202-0.001-0.337c0.283-0.517,0.598-1.027,0.793-1.577c0.456-1.292,0.474-2.636,0.324-3.984		c-0.105-0.946-0.331-1.858-0.831-2.683C80.835,29.661,79.91,29.05,78.674,28.852z M38.246,40.608c0-0.668,0.002-1.298-0.004-1.928		c0-0.049-0.051-0.118-0.096-0.143c-0.627-0.353-0.955-0.928-1.084-1.596c-0.13-0.671-0.208-1.358-0.236-2.042		c-0.037-0.904,0.037-1.808,0.325-2.676c0.181-0.544,0.466-1.015,0.984-1.312c0.058-0.034,0.105-0.136,0.107-0.208		c0.011-0.359,0.005-0.719,0.005-1.079c0-0.251,0-0.502,0-0.776c-0.14,0.035-0.24,0.056-0.339,0.085		c-1.42,0.418-2.288,1.411-2.807,2.743c-0.603,1.547-0.642,3.152-0.406,4.771c0.142,0.977,0.455,1.895,1.067,2.689		C36.382,39.944,37.199,40.427,38.246,40.608z M39.769,40.55c0.071-0.005,0.094-0.003,0.117-0.008		c1.354-0.289,2.316-1.107,2.862-2.338c1.046-2.359,1.01-4.762,0.012-7.126c-0.454-1.074-1.301-1.786-2.442-2.109		c-0.172-0.049-0.35-0.08-0.55-0.125c0,0.512,0.018,0.985-0.006,1.455c-0.018,0.351,0.018,0.628,0.399,0.772		c0.131,0.049,0.257,0.181,0.327,0.307c0.186,0.331,0.387,0.667,0.5,1.026c0.249,0.786,0.291,1.608,0.252,2.423		c-0.034,0.691-0.107,1.388-0.247,2.065c-0.141,0.688-0.474,1.292-1.132,1.648c-0.041,0.023-0.087,0.083-0.087,0.126		C39.767,39.287,39.769,39.909,39.769,40.55z M77.14,40.61c0-0.663,0.002-1.294-0.004-1.925c0-0.05-0.043-0.122-0.087-0.146		c-0.596-0.33-0.887-0.877-1.071-1.5c-0.207-0.697-0.263-1.414-0.266-2.134c-0.004-0.913,0.045-1.823,0.344-2.698		c0.186-0.543,0.469-1.016,0.994-1.302c0.041-0.023,0.085-0.083,0.085-0.125c0.005-0.637,0.004-1.274,0.004-1.964		c-0.352,0.13-0.676,0.222-0.975,0.365c-1.092,0.526-1.755,1.433-2.184,2.534c-0.453,1.162-0.545,2.377-0.496,3.609		c0.042,1.072,0.223,2.114,0.717,3.081C74.815,39.605,75.766,40.36,77.14,40.61z M86.832,40.584c0-0.623,0.002-1.245-0.004-1.867		c0-0.041-0.052-0.099-0.094-0.119c-0.54-0.243-0.782-0.708-0.853-1.251c-0.079-0.6-0.124-1.209-0.128-1.814		c-0.015-2.087-0.006-4.175-0.006-6.261c0-0.101,0-0.202,0-0.308c-0.722,0-1.412,0-2.108,0c-0.004,0.056-0.008,0.095-0.008,0.134		c0,2.503-0.009,5.006,0.005,7.509c0.004,0.755,0.143,1.493,0.457,2.191C84.551,39.822,85.547,40.522,86.832,40.584z M72.178,40.462		c0-3.849,0-7.675,0-11.5c-0.706,0-1.39,0-2.075,0c0,3.841,0,7.668,0,11.5C70.8,40.462,71.479,40.462,72.178,40.462z M88.336,40.611		c0.955-0.149,1.735-0.519,2.291-1.283c0.625-0.86,0.809-1.855,0.815-2.884c0.015-2.415,0.005-4.83,0.004-7.244		c0-0.078-0.007-0.154-0.011-0.237c-0.683,0-1.349,0-2.04,0c0,0.108,0,0.204,0,0.298c0,2.183,0.011,4.366-0.007,6.549		c-0.005,0.555-0.073,1.116-0.17,1.664c-0.083,0.47-0.336,0.86-0.778,1.098c-0.046,0.025-0.099,0.091-0.099,0.139		C88.334,39.332,88.336,39.954,88.336,40.611z M62.098,40.458c0-3.844,0-7.671,0-11.492c-0.685,0-1.351,0-2.018,0		c0,3.84,0,7.661,0,11.492C60.756,40.458,61.418,40.458,62.098,40.458z M46.231,32.113c0,2.8,0,5.57,0,8.341		c0.711,0,1.401,0,2.099,0c0-2.785,0-5.556,0-8.341C47.625,32.113,46.934,32.113,46.231,32.113z M50.713,30.909		c0-0.663,0-1.299,0-1.944c-2.312,0-4.609,0-6.91,0c0,0.655,0,1.291,0,1.944C46.109,30.909,48.4,30.909,50.713,30.909z		 M96.834,40.466c0.969,0,1.917,0,2.881,0c0-0.637,0-1.264,0-1.904c-0.965,0-1.918,0-2.881,0		C96.834,39.198,96.834,39.818,96.834,40.466z M96.833,30.813c0.983,0,1.943,0,2.902,0c0-0.633,0-1.243,0-1.853		c-0.979,0-1.938,0-2.902,0C96.833,29.586,96.833,30.191,96.833,30.813z"></path></svg>