<svg xmlns="http://www.w3.org/2000/svg" x="0px" y="0px" viewBox="0 0 100 70" xml:space="preserve">	<path d="M50,9.645C36.021,9.645,24.649,21.019,24.649,35		S36.021,60.355,50,60.355S75.351,48.981,75.351,35S63.979,9.645,50,9.645z M50,64.389c-3.967,0-7.817-0.778-11.441-2.31		c-3.5-1.48-6.643-3.599-9.341-6.298c-2.698-2.698-4.817-5.841-6.297-9.341c-1.533-3.624-2.31-7.473-2.31-11.439		s0.778-7.815,2.31-11.439c1.48-3.5,3.598-6.643,6.297-9.341c2.698-2.699,5.841-4.818,9.341-6.298		C42.183,6.388,46.033,5.611,50,5.611s7.817,0.778,11.441,2.31c3.5,1.48,6.643,3.599,9.341,6.298		c2.698,2.698,4.817,5.841,6.297,9.341c1.533,3.624,2.31,7.473,2.31,11.44s-0.777,7.815-2.31,11.439		c-1.48,3.5-3.598,6.643-6.297,9.341c-2.698,2.699-5.841,4.818-9.341,6.298C57.817,63.612,53.967,64.389,50,64.389L50,64.389z"></path>	<path d="M31.115,45.562l0.549-0.941		c0.517,0.003,1.045-0.248,1.699-0.811c0.691-0.595,2.488-2.567,4.266-4.665l12.699-14.972l0.872,0.003L44.478,44.66l1.719,0.004		l-0.55,0.941l-7.16-0.021l0.549-0.941l1.626,0.004l1.748-5.081l-4.264-0.013l-3.161,3.695c-0.355,0.407-0.503,0.595-0.58,0.784		c-0.179,0.438-0.055,0.596,0.275,0.597l1.154,0.004l-0.55,0.941L31.115,45.562z M38.978,38.614l3.721,0.012l2.544-7.434		L38.978,38.614z M48.7,41.665l0.314-0.975h1.405l6.46-19.763h-1.482l0.333-0.975h6.182c3.842,0,3.948,2.861,3.555,4.811		c-0.812,4.03-3.545,5.298-5.508,5.46l-0.013,0.066c1.657,0.487,3.423,1.593,2.69,5.233c-0.641,3.185-2.322,5.039-4.183,5.753		c-0.338,0.13-1.21,0.39-2.186,0.39L48.7,41.665L48.7,41.665z M53.655,40.69h1.289c1.598,0,2.399-0.292,3.018-1.723		c0.436-1.007,1.547-4.388,1.804-5.656c0.288-1.43,0.205-2.47-1.472-2.47H56.81L53.655,40.69z M57.163,29.865h1.716		c0.604,0,1.255-0.325,1.711-1.04c0.626-0.975,1.717-4.453,1.96-5.656c0.341-1.69,0.433-2.243-1.439-2.243h-1.034L57.163,29.865z"></path>	<path d="M32.748,36.854l-0.063-1.062l-1.871,0.625L32.748,36.854z		 M34.354,37.766l-0.17,0.011l-0.027-0.442L29.595,36.3l-0.01-0.186l4.41-1.515l-0.027-0.436l0.17-0.011l0.102,1.728l-0.17,0.011		l-0.033-0.566l-1.186,0.404l0.07,1.177l1.226,0.266l-0.033-0.556l0.17-0.01L34.354,37.766z M34.914,30.454l-0.033,0.16		l-4.725,1.375l3.996,0.838l0.11-0.524l0.167,0.036l-0.256,1.218l-0.168-0.035L34.116,33l-4.129-0.866l-0.11,0.524l-0.167-0.036		l0.287-1.368l3.251-0.969l-2.752-0.577l-0.108,0.513l-0.167-0.036l0.256-1.218l0.167,0.035l-0.111,0.534L34.914,30.454z		 M35.416,25.858l1.244,0.64l-0.055,0.107l-0.395,0.05c0.125,0.341,0.066,0.722-0.081,1.008c-0.44,0.855-1.858,0.941-2.866,0.422		c-0.788-0.406-1.363-1.126-1.489-1.878c-0.04-0.266,0.024-0.541,0.14-0.763c0.14-0.272,0.375-0.489,0.704-0.591l-0.155-0.326		l0.055-0.107l1.171,0.604l-0.072,0.141c-0.699-0.267-1.308-0.115-1.552,0.362c-0.159,0.311-0.158,0.515,0.082,0.853		c0.32,0.453,1.048,0.768,1.541,1.02c0.346,0.179,0.815,0.432,1.257,0.542c0.436,0.108,0.814,0.014,1.028-0.342		c0.344-0.579-0.041-1.128-0.624-1.606L35.416,25.858z M37.928,24.538l0.345-0.417l0.131,0.109l-1.132,1.373l-0.132-0.109		l0.345-0.417l-3.254-2.685l-0.345,0.417L33.756,22.7l1.132-1.373l0.131,0.109l-0.344,0.417L37.928,24.538z M37.265,19.318		l1.21,1.54c0.411-0.324,0.567-0.576,0.138-1.168l0.12-0.094l1.177,1.497l-0.12,0.094c-0.507-0.566-0.758-0.576-1.209-0.195		l1.291,1.642l0.609-0.479c0.558-0.439,0.354-0.946-0.033-1.624l0.125-0.098l0.868,1.185l-2.443,1.92l-0.106-0.134l0.43-0.337		l-2.607-3.317l-0.428,0.337l-0.106-0.134l2.375-1.867l0.785,0.946l-0.119,0.094c-0.496-0.444-0.815-0.515-1.093-0.418		c-0.136,0.047-0.265,0.14-0.406,0.251L37.265,19.318z M45.174,19.95l-0.151,0.063l-3.82-3.101l1.585,3.761l0.493-0.208l0.066,0.158		l-1.147,0.484l-0.066-0.158l0.493-0.208l-1.638-3.887l-0.493,0.208l-0.067-0.158l1.289-0.542l2.647,2.121l-1.092-2.591		l-0.483,0.203l-0.067-0.158l1.146-0.483l0.067,0.157l-0.501,0.211L45.174,19.95z M49.484,19.187l-0.163,0.02l-2.817-4.034		l0.488,4.054l0.531-0.063l0.02,0.169l-1.237,0.149l-0.02-0.169l0.532-0.064l-0.504-4.188l-0.531,0.064l-0.021-0.169l1.389-0.167		l1.961,2.768l-0.337-2.792l-0.519,0.062l-0.02-0.17l1.235-0.149l0.02,0.169l-0.542,0.065L49.484,19.187z M52.652,14.912		l-0.285,1.938c0.518,0.077,0.809,0.016,0.942-0.703l0.151,0.022l-0.277,1.885l-0.151-0.022c0.061-0.758-0.104-0.947-0.69-1.013		l-0.305,2.066l0.767,0.112c0.703,0.103,0.931-0.395,1.156-1.141l0.158,0.023l-0.263,1.445l-3.075-0.452l0.026-0.169l0.54,0.079		l0.614-4.173l-0.541-0.079l0.024-0.168l2.988,0.438l-0.146,1.22l-0.151-0.022c-0.018-0.665-0.188-0.945-0.449-1.08		c-0.128-0.067-0.284-0.097-0.463-0.123L52.652,14.912z M65.954,36.593l0.167,0.036l-0.11,0.528l4.127,0.871l0.111-0.528		l0.167,0.035l-0.346,1.641c-0.124,0.588-0.416,1.408-1.378,1.205c-0.68-0.143-0.857-0.767-0.846-1.244l-0.013-0.003		c-0.157,0.513-0.629,1.063-1.389,0.901c-0.589-0.124-0.833-0.517-0.908-0.923c-0.078-0.424,0.079-0.909,0.159-1.283L65.954,36.593z		 M65.865,37.841l-0.142,0.673c-0.097,0.465,0.446,0.664,0.913,0.762c0.628,0.132,1.057,0.05,1.179-0.494l0.106-0.508L65.865,37.841		z M68.089,38.311l-0.101,0.476c-0.086,0.406,0.095,0.707,0.858,0.868c1.074,0.226,0.987-0.283,1.146-0.941L68.089,38.311z		 M68.331,43.781l-1.748-0.884c-0.237,0.468-0.271,0.762,0.369,1.116l-0.069,0.136l-1.699-0.86l0.068-0.136		c0.698,0.297,0.931,0.2,1.179-0.335l-1.864-0.942l-0.349,0.692c-0.321,0.633,0.079,1.007,0.715,1.458l-0.071,0.141l-1.288-0.705		l1.404-2.773l0.151,0.077l-0.247,0.488l3.764,1.903l0.247-0.487l0.152,0.077l-1.363,2.696l-1.111-0.526l0.069-0.136		c0.635,0.193,0.955,0.122,1.166-0.083c0.104-0.1,0.182-0.239,0.263-0.399L68.331,43.781z M63.043,44.264l0.129,0.112l-0.355,0.408		l3.179,2.774l0.354-0.407l0.129,0.112l-1.188,1.362l-0.129-0.112l0.374-0.428l-3.179-2.774l-0.47,0.539		c-0.456,0.522-0.181,1.089,0.396,1.622L62.172,47.6l-1.121-1.051L63.043,44.264z M59.88,51.476		c0.436,0.439,1.048,0.758,1.536,0.428c0.841-0.57,0.145-1.509-0.418-2.339c-0.506-0.746-1.178-1.924-2.005-1.363		c-0.629,0.426-0.154,0.97,0.24,1.552l0.457-0.31l0.095,0.142l-1.415,0.958l-0.095-0.142l0.317-0.215		c-0.555-0.836-0.386-1.66,0.257-2.095c0.511-0.346,0.955-0.333,1.609-0.068c0.474,0.191,0.877,0.601,1.179,1.048		c0.353,0.519,0.509,1.081,0.514,1.664c0.002,0.567-0.173,0.991-0.583,1.27c-0.317,0.214-0.576,0.258-0.959,0.221l-0.02,0.36		l-0.1,0.067l-0.739-1.09L59.88,51.476z M55.583,50.064l-0.503,0.197l-0.062-0.159l1.658-0.648l0.062,0.159l-0.503,0.198l1.534,3.93		l0.503-0.197l0.062,0.159l-1.659,0.648l-0.061-0.159l0.503-0.197L55.583,50.064z M50.779,49.476		c0.865-0.197,1.873-0.249,2.008,1.111c0.31,0.009,1.405,0.475,1.664,2.224c0.163,1.101-0.452,2.358-1.355,2.49		c-0.94,0.139-1.846-0.879-2.01-1.993c-0.258-1.748,0.661-2.513,0.934-2.608c-0.11-1.04-0.464-1.194-1.216-1.063L50.779,49.476z		 M51.878,53.192c0.138,0.931,0.242,2.082,1.193,1.942c0.964-0.164,0.721-1.286,0.585-2.204c-0.134-0.911-0.213-2.343-1.235-2.192		C51.396,50.888,51.74,52.252,51.878,53.192z M45.581,55.011l0.021-0.169l0.542,0.069l0.365-2.843		c0.087-0.677,0.232-0.995,0.487-1.218c0.255-0.222,0.609-0.28,1.096-0.217c0.385,0.05,0.713,0.243,0.913,0.483		c0.205,0.246,0.252,0.699,0.154,1.458l-0.345,2.68l0.536,0.069l-0.021,0.169l-1.766-0.227l0.022-0.169l0.536,0.069l0.318-2.479		c0.121-0.941,0.307-1.749-0.672-1.876c-0.634-0.082-0.969,0.385-1.064,1.129l-0.385,2.993l0.526,0.068l-0.022,0.169L45.581,55.011z		 M42.622,53.835l0.757-1.807c-0.484-0.202-0.78-0.215-1.088,0.448l-0.142-0.06l0.736-1.756l0.141,0.059		c-0.247,0.718-0.134,0.942,0.419,1.152l0.806-1.927l-0.715-0.299c-0.655-0.274-0.998,0.151-1.402,0.819l-0.146-0.061l0.611-1.334		l2.867,1.201L45.4,50.426l-0.504-0.21l-1.629,3.89l0.504,0.212l-0.066,0.158l-2.785-1.167l0.444-1.146l0.141,0.059		c-0.148,0.649-0.053,0.963,0.167,1.159c0.107,0.096,0.251,0.165,0.418,0.234L42.622,53.835z"></path></svg>