<svg xmlns="http://www.w3.org/2000/svg" x="0px" y="0px" viewBox="0 0 100 70" enable-background="new 0 0 100 70" xml:space="preserve">	<path d="M61.076,42.545c0.048-0.576,0.067-1.157,0.148-1.728c0.33-2.325,0.642-4.654,1.031-6.97		c0.69-4.102,1.432-8.195,2.149-12.292c0.359-2.048,0.705-4.098,1.074-6.145c0.162-0.901,0.407-1.084,1.36-1.085		c2.953-0.003,5.905-0.002,8.857-0.001c1.095,0,1.299,0.2,1.299,1.295c0.002,4.813,0.001,9.626,0.001,14.44		c-0.001,8.063-0.002,16.127-0.002,24.19c0,1.189-0.184,1.376-1.375,1.377c-1.538,0.002-3.077,0.002-4.615,0		c-1.212-0.002-1.294-0.082-1.294-1.328c-0.002-5.508-0.009-11.016,0.001-16.524c0.008-4.143,0.038-8.286,0.059-12.43		c0.001-0.293,0-0.585,0-0.878c-0.066-0.013-0.133-0.025-0.199-0.038c-0.091,0.359-0.204,0.714-0.269,1.077		c-1.396,7.745-2.784,15.492-4.178,23.238c-0.346,1.925-0.707,3.847-1.063,5.77c-0.164,0.888-0.393,1.098-1.282,1.107		c-1.34,0.013-2.68,0.014-4.019,0.001c-0.857-0.008-1.073-0.176-1.243-1.058c-0.495-2.577-0.967-5.157-1.443-7.737		c-0.672-3.651-1.351-7.301-2.005-10.955c-0.642-3.581-1.256-7.167-1.887-10.75c-0.038-0.213-0.106-0.421-0.16-0.631		c-0.05-0.004-0.101-0.007-0.151-0.01c-0.022,0.243-0.062,0.485-0.062,0.728c0.011,9.701,0.026,19.401,0.04,29.102		c0.002,1.21-0.102,1.312-1.311,1.314c-1.563,0.001-3.126,0.005-4.689-0.001c-1.055-0.004-1.235-0.172-1.235-1.198		c-0.003-12.951-0.002-25.902,0.001-38.854c0-0.222,0.013-0.448,0.056-0.664c0.076-0.387,0.299-0.589,0.726-0.588		c3.374,0.009,6.748,0.009,10.123,0.002c0.685-0.001,0.799,0.507,0.89,0.992c0.235,1.24,0.429,2.488,0.645,3.731		c0.827,4.754,1.658,9.507,2.484,14.261c0.356,2.048,0.723,4.095,1.039,6.15c0.128,0.83,0.13,1.679,0.199,2.519		c0.016,0.197,0.076,0.39,0.115,0.585C60.952,42.555,61.014,42.55,61.076,42.545z"></path>	<path d="M37.433,48.562c0.62,0,1.241-0.009,1.861,0.002c0.727,0.014,0.936,0.171,1.004,0.902c0.119,1.271-0.318,2.395-1.066,3.396		c-1.292,1.73-3.103,2.598-5.177,2.92c-2.209,0.343-4.361,0.137-6.321-1.055c-2.325-1.414-3.544-3.526-3.84-6.205		c-0.246-2.223,0.139-4.308,1.454-6.148c1.4-1.959,3.33-3.064,5.725-3.351c2.476-0.297,4.8,0.099,6.844,1.601		c1.382,1.015,2.211,2.381,2.387,4.118c0.122,1.199-0.165,1.55-1.341,1.553c-1.141,0.002-2.283-0.017-3.424,0.008		c-0.482,0.01-0.695-0.149-0.625-0.64c0.017-0.122,0.004-0.248,0.003-0.372c-0.01-1.305-0.561-2.038-1.747-2.325		c-1.2-0.291-2.269,0.17-2.793,1.275c-0.23,0.486-0.413,1.02-0.485,1.55c-0.19,1.407-0.217,2.821,0.225,4.196		c0.489,1.519,1.648,2.221,3.066,1.888c1.111-0.261,1.707-1.013,1.736-2.189c0.027-1.128,0.027-1.128,1.175-1.127		c0.447,0,0.893,0,1.34,0C37.433,48.56,37.433,48.561,37.433,48.562z"></path>	<path d="M37.406,21.43c-0.67,0-1.34-0.01-2.01,0.004c-0.351,0.007-0.502-0.137-0.484-0.483c0.01-0.198,0.008-0.397,0.005-0.595		c-0.015-1.185-0.559-1.938-1.598-2.219c-1.197-0.323-2.29,0.043-2.83,1.042c-0.278,0.513-0.495,1.096-0.577,1.671		c-0.226,1.579-0.283,3.167,0.377,4.679c0.531,1.216,1.591,1.763,2.825,1.502c1.149-0.243,1.782-1.017,1.806-2.209		c0.023-1.126,0.023-1.127,1.167-1.127c1.092,0,2.184,0.017,3.275-0.002c0.586-0.01,0.873,0.262,0.934,0.821		c0.108,0.998-0.143,1.921-0.621,2.782c-0.9,1.62-2.285,2.67-4.03,3.214c-2.903,0.905-5.736,0.829-8.335-0.927		c-2.08-1.405-3.145-3.446-3.416-5.918c-0.237-2.164,0.106-4.215,1.366-6.026c1.889-2.714,4.592-3.727,7.804-3.552		c1.243,0.068,2.46,0.32,3.583,0.888c1.998,1.009,3.364,2.511,3.646,4.82c0.032,0.266,0.007,0.542-0.017,0.811		c-0.05,0.562-0.356,0.839-0.933,0.827C38.696,21.419,38.051,21.43,37.406,21.43z"></path>	<path d="M32.2,33.827c2.553,0,5.106-0.001,7.658,0.002c0.222,0,0.461-0.022,0.662,0.05c0.484,0.174,0.775,0.521,0.755,1.068		c-0.017,0.49-0.397,0.933-0.912,1.028c-0.217,0.04-0.444,0.027-0.667,0.027c-5.056,0.001-10.112,0.001-15.169,0.001		c-0.149,0-0.299,0.009-0.446-0.007c-0.691-0.078-1.115-0.546-1.075-1.178c0.038-0.593,0.475-0.986,1.163-0.988		C26.847,33.821,29.523,33.826,32.2,33.827z"></path></svg>