<?xml version="1.0" encoding="utf-8"?>
<!-- Generator: Adobe Illustrator 25.2.1, SVG Export Plug-In . SVG Version: 6.00 Build 0)  -->
<svg version="1.1" id="Layer_1" xmlns="http://www.w3.org/2000/svg" xmlns:xlink="http://www.w3.org/1999/xlink" x="0px" y="0px"
	 viewBox="0 0 596.1 114.4" enable-background="new 0 0 596.1 114.4" xml:space="preserve">
<g>
	<g>
		<g>
			<g>
				<path fill="#FFFFFF" d="M176,78.8v8.1c-1.5,0.2-3.1,0.5-6.1,0.5c-8.2,0-13.8-4-13.7-13.4l0.1-20.8h-7.7v-7.8h7.7l0.1-14h9.1
					l-0.1,14H176v7.8h-10.6l-0.1,19c0,5.4,3.2,7.1,6.9,7.1C173.9,79.2,175.1,79,176,78.8z"/>
				<path fill="#FFFFFF" d="M196.3,30.9c0,3.1-2.6,5.7-5.7,5.7c-3.1,0-5.7-2.5-5.7-5.7s2.6-5.7,5.7-5.7
					C193.7,25.3,196.3,27.8,196.3,30.9z M186,86.7V45.3h9v41.4H186z"/>
				<path fill="#FFFFFF" d="M244.1,60.2l-8.9,0.8c-0.6-5.4-4.7-8.7-10.2-8.7c-6.7,0-11.5,4.9-11.5,13.7c0,8.7,4.9,13.6,11.5,13.6
					c5.7,0,9.4-3.1,10.3-8.2l8.9,0.8c-1.6,9.4-9,15.3-19.1,15.3c-11.9,0-20.8-7.9-20.8-21.5s8.8-21.5,20.8-21.5
					C235,44.6,242.8,50.4,244.1,60.2z"/>
				<path fill="#FFFFFF" d="M279.2,45.3h11.1l-16.6,17.8L292,86.7h-11.5l-13.2-16.8l-4.1,4.2v12.6h-9V24h9v38L279.2,45.3z"/>
				<path fill="#FFFFFF" d="M303.9,69.4c0.5,6.3,4.8,10.3,11.1,10.3c5.2,0,8.7-2.2,9.9-5.9l9.1,0.5c-1.6,7.3-9.1,13.2-18.7,13.2
					c-12.2,0-20.9-8.1-20.9-21.5c0-13.5,8.6-21.5,20.7-21.5c11.9,0,19.4,7.8,19.4,20.4v4.4L303.9,69.4L303.9,69.4z M304,62.3h21.2
					c-0.2-6-3.6-10-10.3-10C308.8,52.3,304.5,55.9,304,62.3z"/>
				<path fill="#FFFFFF" d="M366.7,78.8v8.1c-1.5,0.2-3.1,0.5-6.1,0.5c-8.2,0-13.8-4-13.7-13.4l0.1-20.8h-7.7v-7.8h7.7l0.1-14h9.1
					l-0.1,14h10.5v7.8H356l-0.1,19c0,5.4,3.2,7.1,6.9,7.1C364.5,79.2,365.7,79,366.7,78.8z"/>
				<path fill="#FFFFFF" d="M438.1,61.6v25.1H429V63c0-6.2-3.1-10-8.6-10c-5.2,0-8.4,3.6-9,8.6v0.2v25h-9.1V63c0-6.2-3.4-10-8.3-10
					c-5.7,0-9.4,4.4-9.4,10.1v23.7h-9V45.3h8.6v5.5c2.1-3.6,5.9-6.2,12-6.2c5.7,0,10.5,2.7,13.2,7.5c2.4-4.3,6.9-7.5,13.5-7.5
					C431.9,44.6,438.1,51.3,438.1,61.6z"/>
				<path fill="#FFFFFF" d="M482.3,60.9v25.8h-9.1V83c-2.9,2.7-6.6,4.5-11.2,4.5c-8.2,0-13.8-4.4-13.8-12.1c0-8.9,6.7-12,15.2-12.5
					l9.9-0.6v-1.2c0-5.3-2.3-8.6-7.3-8.6c-5.2,0-7.4,3.3-7.4,7l-9.1-0.3c0-7.3,6.1-14.6,16.5-14.6S482.3,50.4,482.3,60.9z
					 M464.7,69.9c-4.3,0.2-7.3,1.6-7.3,5.3c0,3.5,2.6,4.7,6.2,4.7c5.7,0,9.8-2.8,9.8-9.1v-1.5L464.7,69.9z"/>
				<path fill="#FFFFFF" d="M516.8,78.8v8.1c-1.5,0.2-3.1,0.5-6.1,0.5c-8.2,0-13.8-4-13.7-13.4l0.1-20.8h-7.7v-7.8h7.7l0.1-14h9.1
					l-0.1,14h10.5v7.8h-10.6l-0.1,19c0,5.4,3.2,7.1,6.9,7.1C514.6,79.2,515.9,79,516.8,78.8z"/>
				<path fill="#FFFFFF" d="M537,30.9c0,3.1-2.6,5.7-5.7,5.7s-5.7-2.5-5.7-5.7s2.6-5.7,5.7-5.7C534.4,25.3,537,27.8,537,30.9z
					 M526.8,86.7V45.3h9v41.4H526.8z"/>
				<path fill="#FFFFFF" d="M584.9,60.2L576,61c-0.6-5.4-4.7-8.7-10.2-8.7c-6.7,0-11.5,4.9-11.5,13.7c0,8.7,4.9,13.6,11.5,13.6
					c5.7,0,9.4-3.1,10.3-8.2l8.9,0.8c-1.6,9.4-9,15.3-19.1,15.3c-11.9,0-20.8-7.9-20.8-21.5s8.8-21.5,20.8-21.5
					C575.8,44.6,583.5,50.4,584.9,60.2z"/>
			</g>
		</g>
	</g>
</g>
<g id="Group_402-2_3_" transform="translate(29.584 38.902)">
	<path id="Path_208_3_" opacity="0.4" fill="#EA144A" enable-background="new    " d="M36.4,1.4"/>
	<path id="Path_210_3_" fill="#EA144A" d="M65.1,49.1l-9.7-5.6c-4-2.3-7.6-5.4-10.5-9l-3.5,2c-3,1.7-6.7,1.7-9.7,0l-28-16.1v9.4
		c0.1,13.5,7.3,26,19,32.7l9.1,5.3c3,1.7,6.7,1.7,9.7,0L65.1,54c1.3-0.8,1.8-2.5,1-3.8C65.9,49.7,65.5,49.4,65.1,49.1z"/>
</g>
<path id="Path_211_3_" fill="#FFDC00" d="M33.3,59.3l-0.1-32.6c0-3.3,1.7-6.4,4.6-8L61.6,4.8c1.3-0.8,3.1-0.3,3.8,1
	c0.2,0.4,0.4,0.9,0.4,1.4l0.1,33.1L33.3,59.3z"/>
<path id="Path_212_3_" fill="#1195DF" d="M33.8,23.2c-2.3-0.1-4.6,0.4-6.5,1.6L4.7,38c-1.3,0.8-1.8,2.5-1,3.8c0.2,0.4,0.6,0.8,1,1
	l28.6,16.5l-0.1-32.6C33.2,25.5,33.4,24.3,33.8,23.2z"/>
<path id="Path_213_3_" fill="#FFB097" d="M94.5,56.8L66,40.3l-32.7,19l28,16.1c3,1.7,6.7,1.7,9.7,0l23.7-13.8c1.3-0.8,1.8-2.5,1-3.8
	C95.3,57.4,95,57.1,94.5,56.8z"/>
</svg>
